<?xml version="1.0" standalone="no"?>
<!DOCTYPE svg PUBLIC "-//W3C//DTD SVG 20010904//EN"
 "http://www.w3.org/TR/2001/REC-SVG-20010904/DTD/svg10.dtd">
<svg version="1.0" xmlns="http://www.w3.org/2000/svg"
 width="360.000000pt" height="360.000000pt" viewBox="0 0 360.000000 360.000000"
 preserveAspectRatio="xMidYMid meet">

<g transform="translate(0.000000,360.000000) scale(0.100000,-0.100000)"
fill="#000000" stroke="none">
<path d="M0 1800 l0 -1800 1800 0 1800 0 0 1800 0 1800 -1800 0 -1800 0 0
-1800z m1875 1345 c84 -58 112 -83 137 -120 20 -29 19 -28 -15 5 -20 19 -46
45 -59 56 -29 27 -128 94 -138 94 -15 0 -90 -108 -77 -113 6 -2 -2 -11 -19
-20 -38 -19 -130 -110 -131 -129 0 -7 -4 -22 -8 -33 l-7 -20 16 20 c8 11 23
29 33 39 13 13 13 17 3 12 -8 -4 -6 0 4 8 11 9 23 22 28 28 5 8 7 1 5 -17 -2
-16 -18 -50 -35 -74 -18 -24 -32 -47 -32 -52 0 -4 -11 -21 -24 -37 -14 -15
-36 -59 -51 -97 -14 -38 -30 -74 -36 -82 -6 -7 -8 -13 -4 -13 5 0 0 -9 -10
-20 -10 -11 -25 -20 -33 -20 -8 0 -12 -6 -9 -14 4 -10 1 -13 -9 -9 -9 3 -12 0
-9 -8 3 -8 -14 -36 -37 -63 -24 -27 -51 -63 -61 -80 -32 -56 -10 5 76 209 118
281 148 341 199 411 45 60 196 184 225 184 8 0 43 -20 78 -45z m-95 -20 c-7
-9 -15 -13 -17 -11 -6 6 20 36 26 30 2 -2 -2 -10 -9 -19z m284 -185 c14 -27
24 -50 22 -50 -5 0 -40 59 -49 83 -12 33 1 17 27 -33z m70 -136 c3 -8 2 -12
-4 -9 -6 3 -10 10 -10 16 0 14 7 11 14 -7z m66 -169 c0 -5 -5 -3 -10 5 -5 8
-10 20 -10 25 0 6 5 3 10 -5 5 -8 10 -19 10 -25z m100 -260 c0 -5 -5 -3 -10 5
-5 8 -10 20 -10 25 0 6 5 3 10 -5 5 -8 10 -19 10 -25z m-914 -296 c18 -19 22
-28 11 -24 -14 6 -17 1 -18 -36 l-1 -44 -13 40 -13 40 -1 -37 c-1 -20 -5 -39
-10 -42 -13 -8 -20 39 -9 59 6 9 7 19 4 23 -10 9 -27 -13 -29 -37 -1 -23 -17
-30 -17 -7 0 23 -22 31 -35 13 -7 -9 -15 -13 -20 -9 -4 4 -5 -18 -2 -48 l6
-55 -13 39 c-17 55 -10 85 23 92 65 14 94 28 98 45 3 11 6 19 7 19 1 0 15 -14
32 -31z m1040 9 c4 -6 3 -8 -3 -5 -6 4 -18 -2 -28 -13 -10 -11 -28 -20 -39
-20 -16 0 -12 6 19 24 22 13 41 25 42 25 1 1 5 -4 9 -11z m-986 -95 c0 -22 -8
-14 -19 20 -10 29 -9 30 4 13 8 -11 15 -26 15 -33z m-241 13 c-10 -21 -14 -23
-30 -13 -15 9 -23 7 -42 -11 -13 -12 -28 -22 -33 -22 -5 0 -23 -15 -40 -34
-25 -26 -35 -32 -44 -23 -10 9 -14 9 -17 0 -2 -7 -4 -15 -3 -18 0 -3 -6 -13
-15 -21 -8 -9 -12 -21 -8 -27 3 -7 3 -9 -2 -5 -4 4 -12 2 -19 -5 -19 -20 -57
-108 -51 -118 4 -5 1 -9 -5 -9 -6 0 -9 -4 -6 -9 3 -4 -3 -19 -14 -31 -11 -13
-20 -28 -20 -33 0 -6 -13 -38 -29 -71 -15 -34 -43 -100 -61 -149 -18 -48 -35
-86 -37 -84 -4 5 59 181 88 245 12 25 27 63 35 85 22 61 124 249 151 279 28
29 85 60 153 81 62 20 61 20 49 -7z m1372 -63 c13 -17 13 -17 -6 -3 -11 8 -22
16 -24 17 -2 2 0 3 6 3 6 0 17 -8 24 -17z m-2221 -458 c-7 -8 -18 -15 -24 -15
-6 0 -2 7 8 15 25 19 32 19 16 0z m-216 -74 c-2 -3 -12 3 -22 13 -16 17 -16
18 5 5 12 -7 20 -15 17 -18z m2534 -161 c4 -12 2 -13 -9 -3 -19 19 -1739 19
-1759 1 -12 -11 -12 -10 -1 5 13 16 64 17 889 15 768 -3 876 -5 880 -18z
m-1826 -337 c-20 -3 -30 -8 -26 -15 4 -7 2 -8 -5 -4 -6 4 -18 4 -24 -1 -7 -4
-4 0 6 10 11 9 33 16 51 15 l31 -1 -33 -4z"/>
<path d="M1687 3076 c-15 -23 -15 -24 4 -19 11 3 17 8 14 11 -2 3 0 11 6 19 7
8 8 13 1 13 -5 0 -17 -11 -25 -24z"/>
<path d="M1533 2893 c-7 -3 -13 -11 -13 -18 0 -8 -6 -20 -14 -28 -15 -15 -94
-196 -103 -237 -4 -14 -13 -36 -22 -50 -13 -20 -14 -23 -1 -15 50 30 81 55 70
55 -9 0 -9 6 2 23 8 12 25 51 37 87 12 36 33 82 47 103 19 29 23 44 17 61 -4
13 -14 21 -20 19z"/>
</g>
</svg>
